<svg width="25" height="24" viewBox="0 0 25 24" fill="none" xmlns="http://www.w3.org/2000/svg">
<path d="M12.3804 14.381C13.5376 14.381 14.4756 13.4429 14.4756 12.2857C14.4756 11.1286 13.5376 10.1905 12.3804 10.1905C11.2232 10.1905 10.2852 11.1286 10.2852 12.2857C10.2852 13.4429 11.2232 14.381 12.3804 14.381Z" fill="white"/>
<path d="M15.0002 7.14288H9.76209C9.00019 7.14288 8.33352 7.38098 7.90495 7.80955C7.47638 8.23812 7.23828 8.90479 7.23828 9.66669V14.9048C7.23828 15.6667 7.47638 16.3334 7.95257 16.8096C8.42876 17.2381 9.04781 17.4762 9.80971 17.4762H15.0002C15.7621 17.4762 16.4288 17.2381 16.8573 16.8096C17.3335 16.381 17.5716 15.7143 17.5716 14.9524V9.71431C17.5716 8.95241 17.3335 8.33336 16.9049 7.85717C16.4288 7.38098 15.8097 7.14288 15.0002 7.14288ZM12.3811 15.5238C10.5716 15.5238 9.14304 14.0476 9.14304 12.2857C9.14304 10.4762 10.6192 9.04765 12.3811 9.04765C14.143 9.04765 15.6669 10.4762 15.6669 12.2857C15.6669 14.0953 14.1907 15.5238 12.3811 15.5238ZM15.7621 9.66669C15.3335 9.66669 15.0002 9.33336 15.0002 8.90479C15.0002 8.47622 15.3335 8.14288 15.7621 8.14288C16.1907 8.14288 16.524 8.47622 16.524 8.90479C16.524 9.33336 16.1907 9.66669 15.7621 9.66669Z" fill="white"/>
<path d="M12.476 0.476196C5.99981 0.476196 0.761719 5.71429 0.761719 12.1905C0.761719 18.6667 5.99981 23.9048 12.476 23.9048C18.9522 23.9048 24.1903 18.6667 24.1903 12.1905C24.2379 5.71429 18.9522 0.476196 12.476 0.476196ZM18.7141 14.9524C18.7141 16.0476 18.3331 17 17.6665 17.6667C16.9998 18.3333 16.0474 18.6667 14.9998 18.6667H9.80934C8.76172 18.6667 7.80934 18.3333 7.14267 17.6667C6.42839 17 6.09505 16.0476 6.09505 14.9524V9.71429C6.09505 7.52382 7.57124 6.00001 9.80934 6.00001H15.0474C16.1427 6.00001 17.0474 6.38096 17.7141 7.04763C18.3808 7.71429 18.7141 8.61905 18.7141 9.71429V14.9524Z" fill="white"/>
</svg>
