<?xml version="1.0"?><svg viewBox="0 0 64 64" xmlns="http://www.w3.org/2000/svg"><title/><g data-name="20" id="_20"><path d="M59,22a10,10,0,0,0-15.12-8.59,12,12,0,0,0-23.83.64A9.88,9.88,0,0,0,14,12a10,10,0,0,0-.68,20c.08,3.38.31,6.79.69,10.14a115.28,115.28,0,0,0,2,12V59a1,1,0,0,0,1,1H47a1,1,0,0,0,1-1V54.1a115.72,115.72,0,0,0,2-12c.39-3.39.61-6.84.7-10.26A10,10,0,0,0,59,22ZM46,58H18V55H46Zm3.62-28c-.2,0-.41,0-.62,0a8,8,0,0,1-7.11-4.34,1,1,0,0,0-1.78.92A10,10,0,0,0,48.68,32c-.08,3.3-.3,6.63-.67,9.91-.42,3.71-1,7.45-1.82,11.11H17.81C17,49.34,16.41,45.6,16,41.89c-.37-3.31-.59-6.66-.67-10a10,10,0,0,0,7.57-5.31,1,1,0,0,0-1.78-.91A8.07,8.07,0,0,1,14.18,30H14a8,8,0,0,1,0-16,7.91,7.91,0,0,1,6.17,2.93,11.7,11.7,0,0,0,1.14,3.52,9.6,9.6,0,0,0,.85,1.41,1,1,0,0,0,1.62-1.18,7.58,7.58,0,0,1-.69-1.13,9.87,9.87,0,0,1-1-3.22A7.74,7.74,0,0,1,22,15a10,10,0,0,1,20,0c0,.06,0,.13,0,.25h0v0a9.9,9.9,0,0,1-2.7,6.57,1,1,0,0,0,0,1.42,1,1,0,0,0,.69.27,1,1,0,0,0,.73-.31A12,12,0,0,0,44,15.8,8,8,0,0,1,57,22,8,8,0,0,1,49.62,30Z"/><path d="M42.92,46H43a1,1,0,0,0,1-.92l1-12A1,1,0,0,0,44.08,32a1,1,0,0,0-1.08.92l-1,12A1,1,0,0,0,42.92,46Z"/><path d="M43,52a1,1,0,0,0,1-1V48a1,1,0,0,0-2,0v3A1,1,0,0,0,43,52Z"/><path d="M38.25,30a33.63,33.63,0,0,0-16.5,0A1,1,0,0,0,22,32l.25,0a31.52,31.52,0,0,1,15.5,0A1,1,0,0,0,39,31.25,1,1,0,0,0,38.25,30Z"/></g></svg>