<svg width="16" height="19" viewBox="0 0 16 19" fill="none" xmlns="http://www.w3.org/2000/svg">
<path fill-rule="evenodd" clip-rule="evenodd" d="M3.39043 3.1625C2.23586 4.23435 1.5 5.82835 1.5 7.92763C1.5 9.3745 2.33581 11.156 3.49336 12.9029C4.63667 14.6283 6.03453 16.2336 7.04027 17.3086C7.56808 17.8728 8.43192 17.8728 8.95973 17.3087C9.96547 16.2336 11.3633 14.6283 12.5066 12.9029C13.6642 11.156 14.5 9.3745 14.5 7.92763C14.5 5.82835 13.7641 4.23435 12.6096 3.1625C11.4495 2.08552 9.82759 1.5 8 1.5C6.17241 1.5 4.55053 2.08552 3.39043 3.1625ZM2.71007 2.42962C4.08348 1.15462 5.9616 0.5 8 0.5C10.0384 0.5 11.9165 1.15462 13.2899 2.42962C14.6689 3.70976 15.5 5.57956 15.5 7.92763C15.5 9.69033 14.5129 11.6855 13.3402 13.4552C12.1533 15.2464 10.7136 16.8976 9.68999 17.9918C8.76698 18.9785 7.23302 18.9785 6.31001 17.9918C5.28639 16.8976 3.84667 15.2464 2.65976 13.4552C1.48708 11.6855 0.5 9.69033 0.5 7.92763C0.5 5.57956 1.33114 3.70976 2.71007 2.42962Z" fill="#333333"/>
<path fill-rule="evenodd" clip-rule="evenodd" d="M8 4.5C6.61929 4.5 5.5 5.61929 5.5 7C5.5 8.38071 6.61929 9.5 8 9.5C9.38071 9.5 10.5 8.38071 10.5 7C10.5 5.61929 9.38071 4.5 8 4.5ZM4.5 7C4.5 5.067 6.067 3.5 8 3.5C9.933 3.5 11.5 5.067 11.5 7C11.5 8.933 9.933 10.5 8 10.5C6.067 10.5 4.5 8.933 4.5 7Z" fill="#333333"/>
</svg>
