<svg width="24" height="25" viewBox="0 0 24 25" fill="none" xmlns="http://www.w3.org/2000/svg">
<path fill-rule="evenodd" clip-rule="evenodd" d="M1.5 7.5C1.5 6.11929 2.61929 5 4 5H20C21.3807 5 22.5 6.11929 22.5 7.5V17.5C22.5 18.8807 21.3807 20 20 20H4C2.61929 20 1.5 18.8807 1.5 17.5V7.5ZM4 6C3.17157 6 2.5 6.67157 2.5 7.5V17.5C2.5 18.3284 3.17157 19 4 19H20C20.8284 19 21.5 18.3284 21.5 17.5V7.5C21.5 6.67157 20.8284 6 20 6H4Z" fill="#333333"/>
<path fill-rule="evenodd" clip-rule="evenodd" d="M21.6565 6.56572L21.3459 6.86185C21.3295 6.87751 21.312 6.89203 21.2936 6.90532L12.2936 13.4053C12.1189 13.5315 11.8829 13.5315 11.7082 13.4053L2.70816 6.90532C2.68036 6.88524 2.6547 6.86236 2.63158 6.83703L2.36133 6.54091L3.09996 5.8668L3.33545 6.12483L12.0009 12.3832L20.6805 6.11459L20.9664 5.84198L21.6565 6.56572Z" fill="#333333"/>
</svg>
