<svg width="24" height="25" viewBox="0 0 24 25" fill="none" xmlns="http://www.w3.org/2000/svg">
<path fill-rule="evenodd" clip-rule="evenodd" d="M7.8114 5.19365C7.5532 4.93545 7.13457 4.93545 6.87637 5.19365L5.48522 6.5848C4.49387 7.57615 4.22145 9.07846 4.80159 10.3548C6.68418 14.4965 10.0035 17.8158 14.1452 19.6984C15.4216 20.2786 16.9239 20.0061 17.9152 19.0148L19.3064 17.6236C19.5646 17.3654 19.5646 16.9468 19.3064 16.6886L17.435 14.8172C17.2337 14.616 16.9263 14.5661 16.6718 14.6934L15.6332 15.2126C14.5466 15.7559 13.2343 15.543 12.3753 14.684L9.81606 12.1247C8.95705 11.2657 8.74409 9.95341 9.28737 8.86684L9.80666 7.82826C9.93394 7.57372 9.88405 7.2663 9.68281 7.06506L7.8114 5.19365ZM6.16926 4.48654C6.81799 3.83782 7.86978 3.83782 8.51851 4.48654L10.3899 6.35796C10.8955 6.86355 11.0209 7.63595 10.7011 8.27548L10.1818 9.31406C9.83101 10.0156 9.96852 10.863 10.5232 11.4176L13.0824 13.9769C13.637 14.5315 14.4844 14.669 15.186 14.3182L16.2245 13.7989C16.8641 13.4792 17.6365 13.6045 18.1421 14.1101L20.0135 15.9815C20.6622 16.6302 20.6622 17.682 20.0135 18.3308L18.6223 19.7219C17.3362 21.008 15.3872 21.3614 13.7314 20.6088C9.36964 18.6262 5.87386 15.1304 3.89123 10.7686C3.13859 9.11278 3.49201 7.1638 4.77811 5.87769L6.16926 4.48654Z" fill="#333333"/>
</svg>
