<svg width="24" height="25" viewBox="0 0 24 25" fill="none" xmlns="http://www.w3.org/2000/svg">
<path fill-rule="evenodd" clip-rule="evenodd" d="M14 4C17.5899 4 20.5 6.91015 20.5 10.5C20.5 14.0899 17.5899 17 14 17C10.4101 17 7.5 14.0899 7.5 10.5C7.5 6.91015 10.4101 4 14 4ZM21.5 10.5C21.5 6.35786 18.1421 3 14 3C9.85786 3 6.5 6.35786 6.5 10.5C6.5 14.6421 9.85786 18 14 18C18.1421 18 21.5 14.6421 21.5 10.5Z" fill="#333333"/>
<path fill-rule="evenodd" clip-rule="evenodd" d="M8.64641 15.1465L2.64641 21.1465L3.35352 21.8536L9.35352 15.8536L8.64641 15.1465Z" fill="#333333"/>
</svg>
