<svg width="24" height="24" viewBox="0 0 24 24" fill="none" xmlns="http://www.w3.org/2000/svg">
<path fill-rule="evenodd" clip-rule="evenodd" d="M12 2.5C6.75329 2.5 2.5 6.75329 2.5 12C2.5 17.2467 6.75329 21.5 12 21.5C17.2467 21.5 21.5 17.2467 21.5 12C21.5 6.75329 17.2467 2.5 12 2.5ZM1.5 12C1.5 6.20101 6.20101 1.5 12 1.5C17.799 1.5 22.5 6.20101 22.5 12C22.5 17.799 17.799 22.5 12 22.5C6.20101 22.5 1.5 17.799 1.5 12Z" fill="#333333"/>
<path fill-rule="evenodd" clip-rule="evenodd" d="M11.6464 12.3536C11.5527 12.2598 11.5 12.1326 11.5 12V5H12.5V11.5H19V12.5H12C11.8674 12.5 11.7402 12.4473 11.6464 12.3536Z" fill="#333333"/>
</svg>
