<svg width="24" height="25" viewBox="0 0 24 25" fill="none" xmlns="http://www.w3.org/2000/svg">
<path fill-rule="evenodd" clip-rule="evenodd" d="M12 0.5C18.623 0.5 24 5.87703 24 12.5C24 19.123 18.623 24.5 12 24.5C5.37703 24.5 0 19.123 0 12.5C0 5.87703 5.37703 0.5 12 0.5ZM19.1866 8.88959C19.0141 8.24417 18.5059 7.736 17.8605 7.5635C16.6906 7.25 12 7.25 12 7.25C12 7.25 7.30936 7.25 6.13945 7.5635C5.49422 7.736 4.98586 8.24417 4.81336 8.88959C4.5 10.0594 4.5 12.5001 4.5 12.5001C4.5 12.5001 4.5 14.9407 4.81336 16.1104C4.98586 16.7558 5.49422 17.2642 6.13945 17.4366C7.30936 17.75 12 17.75 12 17.75C12 17.75 16.6906 17.75 17.8605 17.4366C18.5059 17.2642 19.0141 16.7558 19.1866 16.1104C19.5 14.9407 19.5 12.5001 19.5 12.5001C19.5 12.5001 19.5 10.0594 19.1866 8.88959ZM10.5 14.7501V10.25L14.397 12.5001L10.5 14.7501Z" fill="white"/>
</svg>
